<svg version="1.1" id="Layer_1" xmlns="http://www.w3.org/2000/svg" x="0" y="0" viewBox="0 0 1908 737" style="enable-background:new 0 0 1908 737" xml:space="preserve"><style>.st0{fill:#dc4800}</style><path class="st0" d="M411.5 134.9c-1.3 3-2.5 5.1-3.6 6.3-.2.3-.4.6-.4.9-.1 1-.5 1.9-1.3 2.6-.2.2-.4.5-.5.8-.6 1.9-1.5 3.3-2.7 4.5-.2.2-.4.5-.4.9-.1 1.2-.5 2.2-1.4 2.9-.3.2-.4.5-.5.8-.1.8-.4 1.6-.9 2.3-.8 1.2-1.2 1.9-1.3 2-2.3 4.5-3.5 6.8-3.6 7.1-.2.3-.5.6-.8.9-.2.2-.4.5-.5.9-.2.8-.5 1.4-1 1.8-.2.2-.5.4-.9.3-4.4-.3-8.1-.6-11.2-.9-.4 0-2.1-.1-4.9-.2-2.3-.1-4.6-.8-6.5-.8-3 0-6.8-.2-11.5-.5-1.7-.1-3.1-.5-4.3-1.2-1.8-1-3.1-1.9-3.8-2.7-.5-.5-1.2-1-2.1-1.3-.5-.2-1.2-.6-2.2-1.3-4.2-3-7.9-5.3-10.9-7-1.2-.7-2-1.9-3-2.4-1.9-.8-3.5-1.7-4.9-2.7-2.9-2-4.5-3.1-4.6-3.1-2.2-1.3-4.2-2.6-6.1-3.9-2.2-1.5-4.4-2.9-6.7-4.3-5.6-3.4-10.2-6.3-13.7-8.7-.9-.6-1.4-1-1.5-1.1-.7-.8-1.5-1.3-2.1-1.4-1.2-.3-2.3-1-3.3-2.1-.8-.8-1.7-1-2.5-1.4-.3-.1-.4-.3-.3-.7 1-2.8 4.6-10.3 10.7-22.3 5.3-10.5 8.5-16.9 9.6-19.2 1.5-2.9 2.3-4.8 2.6-5.5.4-1 .8-1.8 1.3-2.4.4-.5.7-1.2.8-2 .1-.3.2-.6.4-.9.8-1.1 1.3-1.9 1.5-2.6.2-.8.6-1.6 1.2-2.3.4-.4.7-1.2 1.1-2.5.1-.3.2-.6.5-.9 1.3-1.4 1.3-3 2.4-4.6 1-1.4 1.7-2.9 2.1-4.5.1-.3.3-.6.5-.9.8-.8 1.3-1.7 1.4-2.9 0-.3.2-.7.5-.9 1-1.1 1.6-2.4 1.7-3.9 0-.3.3-.6.6-.6h.1c7.1 2 13.8 3.9 20.2 5.9.5.2 2.3.6 5.3 1.4 1.1.3 2.3.7 3.5 1.1 1.3.4 2.4.8 3.5 1 4.1 1 6.5 1.6 7.1 2 3.7 2.2 7.5 4.4 11.3 6.5 1.4.8 3.1 1.7 4.9 2.7 3.4 1.9 6.9 4 10.6 6.2.5.3.9.5 1.2.7 6.6 3.4 10.1 5.2 10.5 5.5 8.2 4.9 12.3 7.3 12.3 7.3.6.4 1.5.9 2.6 1.4 1 .4 1.8.9 2.7 1.4 3.1 1.8 7.2 4.1 12.2 6.9.8.4.9 1 .5 1.7-1.4 2.2-3.4 6-6.1 11.3-.4.7-1.1 1.4-1.4 2.1-1.6 3.5-3 6.1-4.3 7.9-.3.4-.7 1.2-1.1 2.3-.4 1.1-1.3 2-1.8 3.1-1.6 3.4-2.9 5.9-4.1 7.6-.4.7-.9 1.4-1.3 2.2-.3.7-.6 1.2-.8 1.5-.1 1.1-.4 1.6-.6 1.9zM59.8 49.6l66.9 47.1c.2.1.2.4.1.5l-.1.1c-10.5 6.7-21.1 13-31.8 18.8l-4.8 2.4c-.2.1-.8.5-2 1.3-.4.3-.9.5-1.5.7-.6.2-1.1.4-1.5.6-4.3 2.6-7.4 4.3-9.3 4.9-1.6.6-2.8 1-3.5 1.4-1.8.9-4.6 2.3-8.4 4.1-.3.2-.5.1-.5-.3l-3.9-81.4c-.2-.3 0-.4.3-.2z"/><path class="st0" d="M138.3 97c.3-.2.3-.7 0-.9l-.1-.1-10.9-7.6c-.1-.1-.1-.2-.1-.3 0-.1.1-.1.2-.1 16.1-3.4 32.7-6.1 49.9-8.2 28-3.4 54.6-5.3 79.7-5.7 9.9-.1 21-.1 33.2 0 4.7 0 8.2.2 10.4.3.4 0 .5.2.3.6L293 90.8c-.1.3-.4.4-.7.4-54.3-1.4-110.8 2.8-164.9 14.4-1 .2-1 .1-.2-.4 3.9-2.2 7.6-5 11.1-8.2zM1318.8 84.3 718.6 525.1s0-.1.1-.1c11.8-6.7 22-12.2 30.8-16.5 17.3-8.6 34.4-15.6 51.3-21.2 6.4-2.1 13.4-3.9 20.9-5.4 7.4-1.5 14.4-1.9 21-1.2 3.9.4 7.5 1.4 10.9 3.1 1.7.8 4.5 3.1 8.5 6.8 15.3 14.2 33.2 24 53.6 29.5 15.1 4.1 30.4 6.3 45.8 6.8 45.2 1.3 86.7-9.9 124.7-33.7 25.1-15.7 46.6-35.4 64.5-59.2 22.9-30.4 39.2-64 48.8-100.7 1.9-7.4 4.5-17.8 7.6-31 1.8-7.6 3.3-16.5 4.6-26.6 2.4-19 2.2-37.2-.6-54.7-.7-4.1-.8-7.1-.6-9 .6-4.2 2.2-9 4.7-14.4 2.6-5.5 5.7-10.8 9.1-15.9 7.4-10.9 15.4-21 24.1-30.3 1.7-1.8 6.3-6.6 13.9-14.4 18.2-18.5 37-36 56.5-52.7.6-.4.6-.4 0 0zM1105 269.5c-1.2 12.4-3.7 25.2-6.9 38.9-3.3 14-6.4 25.7-9.3 35-11.4 36.8-29.9 74.7-64.7 94.5-14.1 8-30.7 10.3-47.1 8.8-18.8-1.7-34.3-11.2-41.1-29.2-2.2-5.9-3.6-12.2-4.1-18.9-.2-3.2-.3-5.3-.2-6.4.5-5.4 4.2-9.6 8.1-13.6 4.1-4.2 8.4-8.2 12.7-11.8 5.4-4.5 20.2-15.8 44.4-34.1 28.3-21.3 56.5-42.6 84.8-63.9 5.4-4.1 12.1-7.4 18.8-6.4 3.4.4 4.9 3.6 4.6 7.1zM714.4 87.7c0-.2.2-.3.3-.3h99.7c.1 0 .2.1.2.2-25.9 151.1-44.1 256.8-54.6 316.9-2.3 13.5-7.2 28.5-14.6 44.9-10.9 24.2-28.7 45.7-50.6 61.6-26.3 19.1-56 29.9-89.1 32.6-17.6 1.4-35.7.8-53.1-1.8-22-3.3-43.3-10.6-61.2-23.6-24.2-17.6-37.2-41.7-38.8-72.2-.7-13.7.4-27.4 3.3-41.1.1-.3.4-.6.7-.6h96.6c.4 0 .6.2.5.6-1.1 6.3-1.8 12.9-2.2 19.8-.3 5.3 0 10.5.9 15.6 2.9 17.9 13.2 29.3 30.7 34.1 3.4.9 7.9 1.6 13.4 1.9 15.6 1 28.6-7.2 38.5-18.6 14.1-16.3 21.7-36.4 25.5-57.2 1-5.2 18.9-109.5 53.9-312.8zM1366.8 469.9h192.5c.2 0 .3.1.3.3v.1l-11.6 67.4c0 .2-.2.3-.3.3l-293 .1c-.2 0-.3-.1-.3-.3v-.1l77.5-450c0-.2.2-.3.3-.3h99.7c.2 0 .3.1.3.3v.1l-65.7 381.8c0 .1.1.3.3.3zM1665.3 155.6h-117.8c-.2 0-.3-.1-.3-.3v-.1l11.6-67.7c0-.1.2-.3.3-.3h340.3c.2 0 .3.1.3.3v.1l-11.6 67.7c0 .1-.2.3-.3.3h-121.2c-.1 0-.3.1-.3.3l-65.8 381.8c0 .1-.2.3-.3.3h-100c-.2 0-.3-.1-.3-.3v-.1l65.8-381.6c-.1-.2-.2-.3-.4-.4 0 .1 0 0 0 0zM433.9 108.3l8.4-14.5c.1-.2.2-.2.4-.2 10.8 2.8 21.2 6.1 31.2 9.8 4.5 1.6 6.8 5 6.1 9.8-.6 3.8-2.9 6.1-6.8 6.9-1.4.3-3.4 0-5.8-.8-11.5-4-22.6-7.4-33.2-10.2-.3-.1-.4-.3-.4-.6 0-.2 0-.2.1-.2zM1187.1 160.7l-139.5 102.5c14.5-13.2 28.4-27.1 37.4-43.4 2.5-4.6 5-10.6 3-16-.6-1.5-2-3.1-4.3-4.7-6.5-4.6-14-7.3-22.5-8.3-12.8-1.5-24.9-.5-36.6 2.9-18.4 5.4-35.5 19.3-46.9 34.8-6.9 9.3-12.5 18.9-17 28.8-6 13.5-11 27.2-14.9 41-2.8 9.7-6.7 25.8-11.8 48.2-.1.3-.2.5-.5.7L827 425.4c-.2.1-.3.1-.3-.1-3.1-15.1-4.4-30.4-3.8-45.9.6-15.6 2.7-30.8 6.2-45.8 1.1-4.7 3.4-13.8 6.8-27.5 10-39.2 27.1-74.5 51.3-106 18.4-24 40.7-43.7 66.9-59.3 41.6-24.8 86.9-35 135.9-30.4 37.4 3.5 74.1 19.5 97 50.3.2-.1.2-.1.1 0zM131.6 245.6c1.4-.3 1.4-.6 0-.9-20.6-3.9-42.5-9.8-62.7-17.6-15.6-6-29.4-13.4-41.5-22.2-11-8-23-23-22.5-37.3.1-2.4-.2-6.5.5-9.6 2.8-12.8 11.8-23.5 22-31.2 8.5-6.4 17.6-11.8 27.2-16.1.4-.2.6 0 .6.3.3 4.1.5 9.2.6 15.3 0 .8.3 1.6.5 2.5.1.3-.1.6-.5.8-15.1 7.8-43.5 25.5-31.2 46.7 6.1 10.4 16.8 17.8 27.7 23.7 13.8 7.4 28.1 13.3 43 17.6 21.5 6.2 38.4 10.3 50.6 12.3.3 0 .5.2.7.4l17.8 24.2c.4.6.3 1-.5 1.1-11.3 1.9-22.7 4.6-34.4 8.1-9.8 3-18.5 7-26.1 12.1-1.9 1.3-3.6 3-5.1 5-2.3 3.2-.9 5.8 1.9 8.4 5.1 4.9 12.6 8.3 17.8 10.4 5.9 2.4 12.8 4.6 20.6 6.9.4.1.4.3.1.5-5 2.9-9 7.4-12 13.5-.1.3-.4.4-.7.3-7.5-2.2-15.2-5.3-23.2-9.3-12.9-6.5-27.5-19-21.1-35.4 3-7.7 8.7-12.9 16.3-17.4 10.2-5.8 21.4-10.2 33.6-13.1zM249.8 182.4c-.7 1.8-1.6 3.4-2.8 4.7-.2.2-.4.5-.4.9-.1 1.2-.6 2.2-1.5 2.9-.3.2-.4.5-.5.9-.3 1.6-1.1 3-2.6 4.2-.3.2-.4.5-.4.8-.1 1.3-.6 2.3-1.5 3.1-.2.2-.4.5-.5.8-.3 1.4-.8 2.6-1.5 3.7-1.2 2-1.9 3-1.9 3.1-.7 1.4-1.6 3.1-2.6 5.1-.4.9-.9 1.5-1.4 2-.6.6-.9 1.3-1 2.2-.1 1.2-1 2.2-2.2 2.4-.7.1-1.4.4-2.1.7-1.9 1.1-3.8 2-5.8 2.8-2.3.9-4.2 1.8-5.9 2.6-4.4 2.1-8.5 4.1-12.6 5.7-3.6 1.5-6.7 2.9-9.2 4.2-2.3 1.2-4.4 2.1-6.1 2.9-2.6 1.1-4.6 2-6.2 2.8-4.4 2.1-8.3 3.7-11.7 5-.4.1-.6.3-.7.4-.1.1-.2.2-.2.3-.2.3-.5.3-.7.1-.8-.6-1.4-1.2-1.8-1.9-.7-1.2-1.2-1.9-1.4-2.2-1.3-1.6-2.5-3.1-3.4-4.7-.8-1.2-1.6-2.4-2.6-3.5-1.4-1.6-2.2-2.8-2.6-3.6-.8-1.7-1.4-2.6-2-2.7-.2 0-.3-.2-.3-.4-.2-1.9-2.2-3.2-3.2-4.5-1.9-2.5-3.9-5.4-6.1-8.7-.4-.6-1.7-2.4-4-5.4-1.5-2-2.7-3.9-3.7-5.8-.5-1-1-1.7-1.4-2.1-1.1-1.1-2.3-2-2.8-3.3-.2-.5-.7-1.2-1.6-2.1-.5-.5-1-1.2-1.5-2-1.6-2.6-3.4-5.1-5.6-7.5-.2-.2-.2-.5 0-.8 2.7-3.8 4.8-6.3 6.1-7.6.2-.2.5-.6.9-1.2.3-.4 3.9-5.3 10.9-14.7 2.2-2.9 4.6-5.9 7.1-8.9 1.2-1.4 2.7-2.6 4.4-3.5 10.1-5.3 15.2-8 15.2-8 .7-.5 3.5-1.9 8.1-4.2 3.5-1.7 6.3-3.1 8.1-4.2 1-.5 4.6-2.5 10.9-6 2.7-1.5 7.2-3.8 13.6-6.8.3-.1.6-.1.8.2.5.7.9 1.3 1.1 1.8.9 1.9 2.3 3.2 3.5 5.2 1 1.7 1.8 2.9 2.2 3.4.7.8 1.4 1.9 2.1 3.2.5.8 1.2 1.9 2.1 3.2 2.5 3.3 4.1 6 5 7.8.5 1.1 1.3 2.3 2.4 3.4.7.7 1.4 2 2.1 3.8.1.3.3.6.5.8 1 .9 1.7 1.7 2 2.3.6 1.1 1.1 2 1.7 2.5.6.6 1.3 1.6 1.9 2.9.5 1 1.2 2 2 3 .4.5 1.3 1.9 2.8 4.3.7 1.2 2.3 3.4 4.7 6.8.7.9 1.5 2.5 2.5 4.7.3.7.8 1 1.5 1.3.2.1.2.3.2.5 0 .1-.1.1-.1.1l-.3.2c.2.2 0 .4 0 .6zM307.7 145.3c9.3 5.9 19 12.1 29.3 18.7.8.5 1.4.8 1.8 1 .8.4.8.5-.1.3-13.2-2.3-26.3-3.8-39.5-4.5-16-.9-33.6-.8-53 .3-.3 0-.6-.1-.8-.4L235 145.5c-.1-.2-.1-.3.1-.3 24.3-2.5 47.7-2.8 70.2-.9.6 0 1.4.4 2.4 1zM396.9 176.9l4.6-8c.1-.2.4-.3.7-.2 8.8 5.1 17 12.5 20.9 21.7 4.7 10.9.9 23-7.4 31.5-6 6.1-13.1 11-21.2 14.8-12.3 5.7-26 10.2-41.2 13.5-.3.1-.5 0-.6-.2-1.9-2.6-4.1-5.4-6.6-8.4-1-1.2-2.1-2.2-3.3-3.1-.5-.4-1.5-1.2-3-2.6-.3-.2-.2-.4.1-.4 18.3-3.3 36.6-8.6 52.2-17.1 6.1-3.3 10.6-7.1 13.4-11.3 4.2-6.4 1.9-11.8-3.2-16.6-7-6.7-16-11-24.8-14.5-.4-.2-.4-.2 0-.2l18.7 1.5c.3 0 .5-.1.7-.4zM265.7 257.3c.8-1.2 1.3-2.4 2-3.9.1-.3.3-.5.6-.7 1.2-.9 2-1.9 2.2-3 .1-.3.3-.6.5-.8 1.3-1 2.2-2.1 2.6-3.4.1-.3.3-.6.6-.8 1.8-1.1 3.5-2.4 5.1-3.9.7-.7 1.4-1.2 2.3-1.7.1-.1 1-.5 2.6-1.2 1.3-.6 2.5-1.3 3.8-2.1 1.5-.9 2.8-1.5 3.9-1.7 1.5-.3 3.3-.8 5.5-1.5 1.3-.5 3.6-.7 6.9-.6.9 0 1.8-.1 2.6-.4 1.2-.4 2.3.4 3.6.4 3.1 0 5.1.1 6.1.5 2.1.8 3.9 1.3 5.4 1.6 1.8.4 3.3 1 4.4 1.9.4.3 1.5.9 3.5 1.8 1.6.7 2.8 1.4 3.5 1.9 4.2 3.4 8.1 7.2 11.5 11.4.8 1 1.6 2.4 2.5 4.2.5 1.1 1.2 2.5 2.2 4.4 1 2 1.7 3.6 2 4.9.6 2.5 1 4.1 1.2 4.8 2 7.9 1.3 16.6-2.1 25.9-.8 2.3-1.7 3.9-2.5 4.8-.2.2-.3.5-.4.8-.2.6-.3 1-.3 1.2-.4 1.1-1.4 1.8-1.7 2.8-.1.3-.2.6-.5.8-1.1 1.1-2.4 2.7-4 4.9-.5.7-1.2 1.3-1.9 1.7-.9.5-1.6 1-2 1.5-1.6 1.6-2.9 2.7-3.8 3.2-7.6 4.5-14.4 7.1-20.4 7.8-.9.1-4.4.1-10.4 0-1.7 0-3.3-.3-4.9-.7-2.6-.8-4.2-1.2-4.8-1.4-1.7-.5-3.4-1.1-4.8-1.9-1.4-.8-2.9-1.6-4.7-2.4-2.1-1-3.9-2.6-5.3-4.1-.5-.6-1.2-1.1-2.1-1.5-1.2-.6-2.2-1.5-2.9-2.6-1.1-1.7-1.8-2.8-2.3-3.2-1.9-1.7-3.9-3.9-4.3-6.3-.2-.9-.6-1.6-1.4-2.3-.3-.2-.4-.6-.5-.9-.1-1.1-.5-2-1.2-2.7-.3-.2-.4-.5-.4-.9-.2-2-.5-3.5-1-4.5-.7-1.4-1.1-2.7-1-3.8.1-1-.1-2.7-.6-5-.6-3.2.4-6.5.5-9 0-.8.5-2.1 1.3-4 .2-.4.4-1.8.9-4.2.2-2 1-3.9 2.4-6.1zM166.5 255.4c12.4-5.7 24.8-11.3 37.2-16.9.6-.3 1.7-.5 2.4-.4 20.4 1.8 40.9 2.8 61.6 2.9.2 0 .4.2.4.4 0 .1 0 .2-.1.3-2.1 2.5-5.2 5.7-6.8 8.9-1.1 2.3-2.4 4.6-3.7 6.9-.2.3-.4.4-.7.4-23.3-.4-46.2-1.8-68.9-4.4-1.4-.2-3.4-.2-5.8-.1-2.8.1-7.9.8-15.6 2.2-.1-.2 0-.2 0-.2zM339.3 321.3c5.6-4 10.3-9.2 14-15.3.3-.4.7-.7 1.1-.9 8.9-2.7 16.8-5.8 23.6-9.3 3.7-1.9 8.2-4.9 10.7-8.3 1.1-1.4 1.4-4.2 1.9-6.1 1.7-6.8 11.5-7.6 15.1-2.2 2.4 3.6 1.5 9.6-.2 13.3-5.9 12.9-21.8 20.7-35.2 25.5-14.1 5-28.1 8.6-42.2 10.8-2.7.4-2.8.1-.3-1 2.3-1 4.9-2.3 7.8-3.8 1.5-.9 2.4-1.7 3.7-2.7zM200.7 358.7c-.6 2-1.1 3.2-1.5 3.6-5.8 7.7-13.4 11.9-23 12.4-6.1.3-12.7-1.1-19.8-4.2-.5-.2-1.5-.8-2.8-1.6-1-.6-2-1.1-2.9-1.5-.3-.1-.6-.3-.8-.5-.6-.6-1.2-1-1.9-1.3-.3-.1-.6-.3-.8-.5-1.4-1.4-2.4-2.4-2.9-2.7-.9-.6-1.7-1.4-2.4-2.4s-1.5-1.8-2.4-2.6c-1-.9-2.7-3.8-5.2-8.7-.8-1.6-1.3-2.9-1.4-3.7-.2-1.1-.4-2-.8-2.6-1.4-2.4-1-6.8-1-10.4 0-1.4.3-2.6.8-3.6 1.1-2.2.9-4.5 2.6-6.6 0 0 .6-1 1.8-2.9.8-1.4 2.1-2.7 3.7-3.7 2.3-1.4 3.5-2.2 3.7-2.3 2.5-1.7 5.3-2.8 8.4-3.4 15.6-3 24.2-4.6 25.7-4.8 3.5-.5 8-1.3 13.4-2.6 1.2-.3 1.8.2 1.8 1.5-.1 3.1 1.8 5.6 2 8.4.1 1.5.4 2.9 1 4.2 1.1 2.5 1 5.6 2.1 8.2.3.8.6 2.1 1 3.9.5 2.6 1.3 5 2.2 7.8.8 2.5.7 4.9 1.5 7.4.4 1.2.5 2.6.5 4.2-.1 3.3-.6 6.5-1.5 9.6-.1.2-.2.5-.4.7-.4.1-.6.4-.7.7z"/><path class="st0" d="M194.4 412.4c-15.6-1.9-30.6-5.4-45.1-10.4-9.9-3.4-18.8-8.3-26.6-14.7-5.3-4.4-8.8-9.8-10.4-16.4-.8-3.3-.9-6-.1-8 2.9-7.8 14.5-7.6 16.3 1.3 1 4.8 2.5 8.2 6.9 11.3 6.9 4.9 14.7 8.7 23.5 11.5 28.9 9.2 58.1 11.6 89.4 10.9 15.9-.4 32.2-2.2 48.8-5.6 11.4-2.3 22.1-5.8 32.2-10.4 6-2.8 10.7-5.9 14.1-9.4 4.4-4.6 4.2-9.2-.5-13.8-2.7-2.6-5.4-4.6-8.1-6.2-11.9-6.8-25.3-10.7-39.9-13.7-6.4-1.3-12.8-2.4-19.1-3.1-3.6-.4-10.1-.5-19.3-.3-13 .2-26.1.1-39.4-.4-3.1-.1-5.9-.3-8.6-.6-.3 0-.5-.2-.6-.5l-4.1-16.4c-.1-.4.1-.5.4-.5 22.1 1.7 44.1 2 65.9.8.8 0 1.5.2 2.1.7 3 2.5 5 4.5 7.8 5.8 1.8.8 3.4 1.7 4.7 2.5 1.2.7 2.8 1.4 4.8 2 3.4 1 5.5 1.6 6.3 1.8 5.5 1.5 10.6 1.3 16.3 1.2 1.8 0 4-.4 6.6-1.1.8-.2 3-.8 6.5-1.8.4-.1.7 0 .8.2l.1.2c.1.2.3.3.5.4 5.8 2 11.5 4.6 17 7.8 7.4 4.3 15.5 11.1 18.4 19.1 5.3 14.5-2.7 26.7-14.7 34.8-7.5 5-16.2 9.1-26.1 12.1-16.5 5.1-32.2 8.2-47.2 9.5-6.9.6-14.4 1.2-22.5 1.7-8.7.6-15.3 1.4-19.8 2.4-8.7 1.9-16.6 4.7-23.9 8.2-3.8 1.8-8.7 5-10.6 9-.1.3-.2.6-.1.9 1.5 4.6 7.9 8.2 12 10 8.9 3.9 18.6 6.8 29 8.7 23.8 4.4 48.3 5.1 73.5 2.3 2.4-.3 6.1-.6 8.5 0 4.1 1.1 6.1 3.9 6.2 8.4 0 3.1-1.5 5.5-4.7 7.2-1.6.9-4.7 1.5-9.2 1.8-8.6.6-15.2 1-19.6 1.1-1.2 0-2.8.5-4.9 1.3-6.2 2.5-11.6 6.8-15.3 12.3-6.3 9.5 2.5 18.7 10.6 23.3 8.2 4.7 17.6 7.6 28.2 8.6 2.6.3 5 .4 7.2.4 3.1 0 5.3.5 6.5 1.3 6.4 4.5 4.9 15.1-3.9 15.5-18.6.8-40-4.3-54.5-16.4-14.5-12-18.1-30.7-5.9-46 .2-.2.1-.5-.1-.7-.1-.1-.2-.1-.3-.1-19.2-1.8-38.9-5.1-56.2-12.5-7.1-3-13-6.8-17.5-11.4-4.1-4.1-6.3-8.9-6.7-14.2-.7-10.3 6.5-17.9 14.5-23.1.7-.2.7-.5-.1-.6zM1238.6 664.8c-1.4-5.5-11.7-10.3-16.4-12-10.5-3.8-19.3-7.1-27.8-13.7-6-4.6-9.3-11-9.3-18.8.1-17.8 12.5-28.9 28.9-33 9.8-2.5 19.7-2.6 29.6-.5 9.3 2 19.1 7.9 22.4 17 1.8 4.8 2.1 10.2.9 16-.1.3-.3.4-.5.4h-23.3c-.4 0-.5-.2-.5-.5.7-10.6-4.1-16.3-14.4-17.3-4-.4-7.9.7-11.6 3.2-6.8 4.5-8.9 15.2-1.8 20.6 2.5 1.9 6 3.7 10.4 5.5 8.1 3.3 13.4 5.4 15.8 6.4 6.8 2.8 12.6 6.6 17.3 11.4 3.6 3.6 5.6 8.2 6 13.7.9 12.9-3.5 22.7-13 29.6-10.7 7.7-25.4 9.5-39.2 8.3-8.2-.7-15.7-3.1-22.4-7-7.6-4.5-11.4-11.1-11.4-19.9 0-2.6.2-4.9.7-7 .1-.3.3-.5.6-.5h22.8c.7 0 1 .4 1 1.1-.4 3.8-.1 6.9 1.1 9.1 1.2 2.3 3.5 4.1 6.7 5.4 7.4 3 16.2 3.3 22.5-1.6 5.1-3.8 6.7-9.1 4.9-15.9zM1396.4 621.6c1-8 1.7-16.2-8.4-18.4-9-1.9-18.3-.6-24.1 7-3.2 4.2-5.3 9.2-6.4 15.1-.9 5.5-2.9 17.1-6 35-1.8 10.8-1.5 22.3 12.1 24 5.4.7 10.1.2 14.1-1.6 7-3 9.7-10.3 10.9-17.4.1-.3.2-.5.6-.5h23.5c.4 0 .6.2.5.6-2.9 16.6-10.8 28.2-27.6 33.2-8.7 2.6-18 3.4-27.9 2.5-5.4-.5-10.9-1.9-15.7-4.4-9.8-5.1-15.2-13-16.3-23.4-.5-4.3.1-10.9 1.7-19.8 1.5-8.3 3-17 4.5-26 2.9-17.1 11.2-30.6 27.5-37.6 8.2-3.6 16.9-4.6 26.3-4.5 16.5.3 35.2 6.3 36.1 25.8.2 3.4-.1 6.9-.8 10.4 0 .2-.2.4-.5.4h-23.7c-.3 0-.4-.1-.4-.4zM1486.6 664.7c-2.2-6.8-14.8-11.3-20.9-13.5-9.8-3.5-20-8.1-27.1-15.8-3.2-3.4-4.9-7.8-5.3-13-1.2-17.7 11-30.4 27.8-34.7 11.7-3.1 23.2-3 34.4.3 3.9 1.1 7.5 3 10.9 5.7 8.5 6.7 10.6 15.4 8.8 26.2-.1.3-.2.5-.6.5h-23.3c-.4 0-.6-.2-.5-.6.7-8.8-2.6-14.3-10-16.5-9.4-2.8-21.3 2.2-22.1 13.1-.3 4.3 1.1 7.6 4.2 9.9 2.7 2 6.3 3.9 10.8 5.7 10.4 4.1 15.6 6.2 15.8 6.3 7.8 3.4 16.8 8.9 20.8 16.5 1.4 2.7 2.2 5.9 2.4 9.7 1.1 19.6-12.3 32.1-30.4 35.7-15.6 3.1-35.7 1.6-48-8.5-7.5-6.2-8.7-15-7-24.2.1-.4.3-.5.6-.5h22.9c.6 0 .9.3.8.9-.5 3.8-.1 6.8 1.1 9.2 2.9 5.6 11.7 7.8 17.6 7.7 10.8-.3 20-8.8 16.3-20.1zM961 610.2c-2.6-11.1-11.3-18.7-22.2-21.5-4.2-1.1-8-1.6-11.3-1.7-11.4-.1-26.6-.1-45.7 0-.3 0-.5.2-.6.5L862 699.7c0 .2 0 .3.3.3h24.5c.2 0 .3-.1.3-.3l6.9-40.2c.1-.3.3-.5.6-.5 7.1.1 14 .1 20.7-.1 17.8-.5 33.9-8.1 42-24 3.6-7.1 5.4-17.1 3.7-24.7zm-24.7 10.9c-1.1 10.9-8.5 20.5-20 20.8-3.4.1-9.7.1-18.8 0-.2 0-.4-.2-.4-.4v-.1l6.4-37.1c0-.1.1-.2.2-.2h19c10.4.1 14.5 7.4 13.6 17zM998.1 653.2l-8 46.5c0 .2-.2.3-.4.3h-24.3c-.2 0-.4-.2-.4-.4v-.1l19.4-112.3c0-.2.2-.3.4-.3h24.3c.2 0 .4.2.4.4v.1l-8.2 48c0 .2.1.4.3.4H1042.9c.2 0 .3-.1.4-.3l8.3-48.2c0-.2.2-.3.4-.3h24.3c.2 0 .4.2.4.4v.1l-19.4 112.3c0 .2-.2.3-.4.3h-24.3c-.2 0-.4-.2-.4-.4v-.1l8-46.3c0-.2-.1-.4-.3-.4H998.6c-.3 0-.5.1-.5.3zM1127.1 636.1l30.8-49c.1-.1.2-.2.3-.2h26.5c.2 0 .4.2.4.4 0 .1 0 .2-.1.2l-50 72.1s-.1.1-.1.2l-6.9 39.9c0 .2-.2.3-.4.3h-24.3c-.2 0-.4-.2-.4-.4v-.1l7.2-41.2v-.2l-24.8-70.8c-.1-.2 0-.4.2-.5H1112.2c.2 0 .3.1.4.3l13.8 48.8c.1.2.3.3.5.3.1.1.2 0 .2-.1zM1275.4 699.6l19.3-112.2c0-.2.2-.4.4-.4h24.2c.2 0 .4.2.4.4v.1l-19.3 112.2c0 .2-.2.4-.4.4h-24.2c-.2 0-.4-.2-.4-.5z"/></svg>