<svg id="Layer_2" data-name="Layer 2" xmlns="http://www.w3.org/2000/svg" viewBox="0 0 1447.26 637.73"><defs><style>.cls-1{fill:#dc4800;stroke-width:0}</style></defs><g id="Layer_1-2" data-name="Layer 1"><path class="cls-1" d="M878.4.32 278.12 472.19l.04.05s.03.04.04.05c-.02-.04 0-.1.06-.13 11.77-7.14 22.05-13.04 30.82-17.69 17.29-9.15 34.4-16.71 51.34-22.65 6.4-2.25 13.36-4.16 20.88-5.75 7.39-1.55 14.4-1.99 21.05-1.32 3.86.4 7.48 1.49 10.87 3.3 1.66.89 4.48 3.3 8.46 7.25 15.3 15.17 33.15 25.69 53.56 31.55 15.13 4.35 30.42 6.76 45.85 7.24 45.15 1.38 86.7-10.64 124.67-36.07 25.05-16.78 46.55-37.91 64.48-63.4 22.9-32.54 39.16-68.47 48.78-107.77 1.95-7.97 4.47-19.01 7.58-33.15 1.78-8.1 3.32-17.61 4.61-28.5 2.41-20.35 2.22-39.88-.56-58.57-.65-4.36-.83-7.59-.56-9.68.6-4.52 2.18-9.66 4.73-15.42 2.63-5.92 5.66-11.59 9.1-17.04 7.37-11.67 15.4-22.47 24.08-32.41 1.69-1.94 6.34-7.06 13.94-15.37A860.5 860.5 0 0 1 878.45.36c.52-.47.5-.49-.05-.05ZM664.52 198.55c-1.22 13.3-3.66 27.03-6.89 41.59-3.33 15.01-6.43 27.48-9.3 37.42-11.4 39.45-29.92 79.96-64.72 101.18-14.06 8.56-30.71 11.02-47.05 9.41-18.83-1.85-34.28-12-41.07-31.28-2.24-6.35-3.61-13.09-4.1-20.23-.24-3.4-.31-5.67-.22-6.82.49-5.79 4.19-10.26 8.11-14.56 4.13-4.54 8.37-8.74 12.73-12.59 5.39-4.77 20.19-16.95 44.38-36.52 28.25-22.86 56.53-45.66 84.84-68.42 5.4-4.35 12.14-7.91 18.82-6.81 3.29.54 4.81 3.95 4.47 7.63ZM261.94 23.82c.03-.17.18-.3.35-.3h99.7c.13 0 .23.1.23.24v.03c-25.93 151.11-44.12 256.75-54.57 316.94-2.34 13.52-7.22 28.5-14.65 44.93-10.93 24.17-28.66 45.7-50.62 61.64-26.27 19.06-55.97 29.92-89.1 32.57-17.58 1.4-35.66.82-53.15-1.82-21.95-3.31-43.26-10.63-61.16-23.62C14.74 436.84 1.82 412.76.21 382.18c-.72-13.67.38-27.37 3.29-41.09.07-.33.37-.57.71-.57h96.57c.39 0 .56.2.49.59-1.11 6.31-1.83 12.91-2.16 19.8-.26 5.3.03 10.49.87 15.56 2.94 17.91 13.17 29.29 30.69 34.14 3.43.95 7.91 1.59 13.44 1.94 15.56.99 28.6-7.18 38.47-18.63 14.06-16.31 21.69-36.36 25.47-57.22.95-5.25 18.92-109.54 53.89-312.88ZM914.4 406.08h192.52c.18 0 .32.14.32.32v.05l-11.61 67.42c-.02.16-.16.27-.32.27l-292.96.06c-.18 0-.32-.14-.32-.32v-.05l77.48-450.04c.02-.16.16-.27.32-.27h99.66c.18 0 .32.14.32.32v.05l-65.73 381.82c-.03.17.09.34.27.37h.05ZM1212.82 91.82h-117.8c-.17 0-.31-.13-.31-.31v-.05l11.62-67.68c.02-.15.15-.26.3-.26h340.31c.17 0 .31.13.31.31v.05l-11.63 67.68c-.02.15-.15.26-.3.26h-121.21c-.15 0-.28.11-.3.26l-65.79 381.82c-.02.15-.15.26-.3.26h-100.03c-.17 0-.31-.13-.31-.31v-.05l65.75-381.62a.315.315 0 0 0-.26-.36h-.05ZM746.69 82.11 607.15 191.8s-.02.02-.03 0v-.05c14.46-14.09 28.43-28.97 37.4-46.44 2.53-4.92 4.95-11.34 2.97-17.14-.56-1.66-1.98-3.34-4.26-5.05-6.53-4.89-14.04-7.87-22.54-8.93-12.76-1.6-24.94-.56-36.55 3.1-18.41 5.8-35.47 20.72-46.93 37.29-6.87 9.94-12.52 20.21-16.96 30.83-6.04 14.47-11.01 29.11-14.92 43.94-2.75 10.43-6.69 27.63-11.8 51.57-.06.3-.23.57-.46.75l-106.45 83.69c-.16.12-.26.08-.3-.13-3.14-16.18-4.39-32.57-3.75-49.16.64-16.66 2.7-33.02 6.18-49.08 1.08-4.99 3.36-14.81 6.85-29.47 9.99-41.93 27.1-79.75 51.34-113.46 18.44-25.65 40.73-46.83 66.87-63.53 41.61-26.59 86.92-37.44 135.93-32.57 37.4 3.72 74.12 20.91 96.98 53.89.07.09.06.17-.03.25ZM786.18 600.97c-1.42-5.45-11.71-10.3-16.37-12.02-10.46-3.84-19.3-7.11-27.79-13.68-5.96-4.6-9.35-11.02-9.32-18.79.09-17.79 12.55-28.89 28.92-32.98 9.79-2.45 19.67-2.61 29.64-.47 9.33 2 19.08 7.88 22.43 16.95 1.77 4.82 2.06 10.17.87 16.05-.05.26-.28.44-.54.44h-23.28c-.36 0-.53-.18-.51-.54.68-10.58-4.12-16.34-14.39-17.28-3.99-.37-7.87.69-11.63 3.18-6.84 4.54-8.89 15.18-1.8 20.58 2.47 1.88 5.95 3.72 10.44 5.52 8.12 3.25 13.4 5.38 15.85 6.39 6.82 2.79 12.59 6.58 17.31 11.36 3.59 3.63 5.57 8.21 5.95 13.74.88 12.85-3.45 22.72-13 29.61-10.65 7.68-25.4 9.55-39.17 8.32-8.21-.73-15.67-3.05-22.4-6.98-7.62-4.45-11.41-11.09-11.36-19.9 0-2.58.25-4.92.73-7.03.07-.31.27-.46.59-.46h22.77c.71 0 1.03.35.95 1.06-.43 3.85-.05 6.89 1.14 9.12 1.23 2.3 3.45 4.11 6.66 5.43 7.36 3.04 16.15 3.31 22.52-1.65 4.96-3.86 6.56-9.18 4.79-15.97ZM943.96 557.79c1.04-8.05 1.69-16.25-8.4-18.42-9.01-1.92-18.32-.56-24.13 6.96-3.23 4.17-5.35 9.22-6.37 15.13-.94 5.46-2.93 17.12-5.96 34.99-1.84 10.83-1.52 22.29 12.13 24.03 5.4.69 10.12.17 14.15-1.57 6.99-3.01 9.66-10.34 10.9-17.36.05-.31.24-.47.56-.47h23.47c.41 0 .58.2.51.61-2.86 16.56-10.81 28.24-27.58 33.21-8.69 2.58-18 3.4-27.93 2.45-5.44-.52-10.91-1.87-15.69-4.4-9.75-5.15-15.19-12.95-16.3-23.41-.46-4.28.11-10.89 1.7-19.84 1.49-8.35 2.98-17.02 4.49-26.03 2.87-17.14 11.23-30.56 27.45-37.59 8.21-3.56 16.92-4.61 26.31-4.46 16.47.27 35.2 6.31 36.1 25.83.16 3.45-.12 6.91-.83 10.38-.05.23-.25.39-.48.39h-23.72c-.29 0-.41-.14-.38-.43ZM1034.12 600.83c-2.21-6.83-14.76-11.35-20.93-13.55-9.8-3.5-20.01-8.15-27.1-15.81-3.17-3.43-4.94-7.77-5.29-13.02-1.19-17.69 11.04-30.35 27.79-34.71 11.73-3.05 23.2-2.95 34.42.31 3.85 1.12 7.47 3.02 10.86 5.69 8.47 6.69 10.61 15.37 8.75 26.24-.05.33-.25.49-.58.49h-23.3c-.4 0-.58-.2-.55-.6.72-8.76-2.62-14.25-10.03-16.48-9.43-2.83-21.33 2.16-22.07 13.07-.29 4.3 1.13 7.6 4.24 9.91 2.72 2.01 6.34 3.91 10.85 5.7 10.4 4.14 15.65 6.23 15.75 6.28 7.85 3.39 16.77 8.85 20.75 16.53 1.39 2.69 2.19 5.92 2.4 9.69 1.1 19.62-12.28 32.07-30.36 35.7-15.63 3.13-35.66 1.64-48.02-8.55-7.52-6.2-8.69-15-7.01-24.21.06-.35.27-.53.63-.53h22.94c.63 0 .91.31.82.94-.49 3.79-.13 6.84 1.09 9.15 2.94 5.56 11.66 7.75 17.63 7.7 10.86-.08 20.02-8.56 16.32-19.94ZM508.54 546.41c-2.57-11.12-11.35-18.73-22.17-21.51-4.23-1.08-7.99-1.64-11.3-1.69-11.35-.15-26.56-.15-45.65-.02-.34 0-.54.17-.6.51l-19.31 112.2c-.04.21.05.32.26.32h24.51c.16 0 .3-.12.33-.28l6.93-40.23c.06-.33.26-.5.6-.49 7.09.12 14 .09 20.71-.08 17.75-.47 33.93-8.11 41.96-23.98 3.62-7.16 5.46-17.24 3.73-24.75Zm-24.7 10.82c-1.06 10.87-8.47 20.49-20 20.81-3.41.09-9.66.1-18.75.05-.23 0-.42-.18-.43-.4 0-.03 0-.06.01-.09l6.39-37.1c.02-.11.11-.19.21-.19 6.5-.01 12.84.01 19.02.05 10.4.06 14.47 7.32 13.55 16.87ZM545.64 589.38l-8.03 46.52c-.03.18-.19.32-.37.32h-24.35c-.21 0-.38-.18-.37-.39v-.05l19.36-112.34c.03-.18.19-.32.37-.32h24.35c.21 0 .38.18.37.39v.05l-8.25 47.98c-.03.21.11.4.32.44H590.32c.18 0 .34-.13.37-.31l8.28-48.23c.03-.18.19-.32.37-.32h24.27c.21 0 .38.18.37.39v.05L604.63 635.9c-.03.18-.19.32-.37.32H580c-.21 0-.38-.17-.37-.38v-.05l7.97-46.29a.39.39 0 0 0-.32-.44H546.01c-.18 0-.34.14-.37.32ZM674.68 572.28l30.75-48.97c.07-.11.19-.18.32-.18l26.53-.03c.21 0 .38.16.39.37 0 .08-.02.16-.07.23l-50.04 72.09s-.05.1-.06.15l-6.91 39.95c-.03.18-.19.32-.37.32l-24.27.02a.38.38 0 0 1-.38-.38v-.07l7.15-41.21c.01-.06 0-.13-.01-.19l-24.81-70.76c-.07-.2.03-.42.23-.49.04-.02.09-.02.13-.02h26.6c.17 0 .32.12.37.29l13.75 48.79c.06.2.27.32.47.26.09-.03.17-.09.22-.17ZM822.96 635.74l19.33-112.24a.42.42 0 0 1 .42-.36h24.15c.24 0 .43.2.43.43v.07l-19.33 112.24a.42.42 0 0 1-.42.36h-24.15c-.24 0-.43-.2-.43-.43v-.07Z"/></g></svg>