<svg id="Layer_2" data-name="Layer 2" xmlns="http://www.w3.org/2000/svg" viewBox="0 0 1447.26 480.61"><defs><style>.cls-1{fill:#dc4800;stroke-width:0}</style></defs><g id="Layer_1-2" data-name="Layer 1"><path class="cls-1" d="M878.4.32 278.12 472.19l.04.05s.03.04.04.05c-.02-.04 0-.1.06-.13 11.77-7.14 22.05-13.04 30.82-17.69 17.29-9.15 34.4-16.71 51.34-22.65 6.4-2.25 13.36-4.16 20.88-5.75 7.39-1.55 14.4-1.99 21.05-1.32 3.86.4 7.48 1.49 10.87 3.3 1.66.89 4.48 3.3 8.46 7.25 15.3 15.17 33.15 25.69 53.56 31.55 15.13 4.35 30.42 6.76 45.85 7.24 45.15 1.38 86.7-10.64 124.67-36.07 25.05-16.78 46.55-37.91 64.48-63.4 22.9-32.54 39.16-68.47 48.78-107.77 1.95-7.97 4.47-19.01 7.58-33.15 1.78-8.1 3.32-17.61 4.61-28.5 2.41-20.35 2.22-39.88-.56-58.57-.65-4.36-.83-7.59-.56-9.68.6-4.52 2.18-9.66 4.73-15.42 2.63-5.92 5.66-11.59 9.1-17.04 7.37-11.67 15.4-22.47 24.08-32.41 1.69-1.94 6.34-7.06 13.94-15.37A860.5 860.5 0 0 1 878.45.36c.52-.47.5-.49-.05-.05ZM664.52 198.55c-1.22 13.3-3.66 27.03-6.89 41.59-3.33 15.01-6.43 27.48-9.3 37.42-11.4 39.45-29.92 79.96-64.72 101.18-14.06 8.56-30.71 11.02-47.05 9.41-18.83-1.85-34.28-12-41.07-31.28-2.24-6.35-3.61-13.09-4.1-20.23-.24-3.4-.31-5.67-.22-6.82.49-5.79 4.19-10.26 8.11-14.56 4.13-4.54 8.37-8.74 12.73-12.59 5.39-4.77 20.19-16.95 44.38-36.52 28.25-22.86 56.53-45.66 84.84-68.42 5.4-4.35 12.14-7.91 18.82-6.81 3.29.54 4.81 3.95 4.47 7.63ZM261.94 23.82c.03-.17.18-.3.35-.3h99.7c.13 0 .23.1.23.24v.03c-25.93 151.11-44.12 256.75-54.57 316.94-2.34 13.52-7.22 28.5-14.65 44.93-10.93 24.17-28.66 45.7-50.62 61.64-26.27 19.06-55.97 29.92-89.1 32.57-17.58 1.4-35.66.82-53.15-1.82-21.95-3.31-43.26-10.63-61.16-23.62C14.74 436.84 1.82 412.76.21 382.18c-.72-13.67.38-27.37 3.29-41.09.07-.33.37-.57.71-.57h96.57c.39 0 .56.2.49.59-1.11 6.31-1.83 12.91-2.16 19.8-.26 5.3.03 10.49.87 15.56 2.94 17.91 13.17 29.29 30.69 34.14 3.43.95 7.91 1.59 13.44 1.94 15.56.99 28.6-7.18 38.47-18.63 14.06-16.31 21.69-36.36 25.47-57.22.95-5.25 18.92-109.54 53.89-312.88ZM914.4 406.08h192.52c.18 0 .32.14.32.32v.05l-11.61 67.42c-.02.16-.16.27-.32.27l-292.96.06c-.18 0-.32-.14-.32-.32v-.05l77.48-450.04c.02-.16.16-.27.32-.27h99.66c.18 0 .32.14.32.32v.05l-65.73 381.82c-.03.17.09.34.27.37h.05ZM1212.82 91.82h-117.8c-.17 0-.31-.13-.31-.31v-.05l11.62-67.68c.02-.15.15-.26.3-.26h340.31c.17 0 .31.13.31.31v.05l-11.63 67.68c-.02.15-.15.26-.3.26h-121.21c-.15 0-.28.11-.3.26l-65.79 381.82c-.02.15-.15.26-.3.26h-100.03c-.17 0-.31-.13-.31-.31v-.05l65.75-381.62a.315.315 0 0 0-.26-.36h-.05ZM746.69 82.11 607.15 191.8s-.02.02-.03 0v-.05c14.46-14.09 28.43-28.97 37.4-46.44 2.53-4.92 4.95-11.34 2.97-17.14-.56-1.66-1.98-3.34-4.26-5.05-6.53-4.89-14.04-7.87-22.54-8.93-12.76-1.6-24.94-.56-36.55 3.1-18.41 5.8-35.47 20.72-46.93 37.29-6.87 9.94-12.52 20.21-16.96 30.83-6.04 14.47-11.01 29.11-14.92 43.94-2.75 10.43-6.69 27.63-11.8 51.57-.06.3-.23.57-.46.75l-106.45 83.69c-.16.12-.26.08-.3-.13-3.14-16.18-4.39-32.57-3.75-49.16.64-16.66 2.7-33.02 6.18-49.08 1.08-4.99 3.36-14.81 6.85-29.47 9.99-41.93 27.1-79.75 51.34-113.46 18.44-25.65 40.73-46.83 66.87-63.53 41.61-26.59 86.92-37.44 135.93-32.57 37.4 3.72 74.12 20.91 96.98 53.89.07.09.06.17-.03.25Z"/></g></svg>