<svg id="Layer_2" data-name="Layer 2" xmlns="http://www.w3.org/2000/svg" viewBox="0 0 1447.26 460.42"><defs><style>.cls-1{fill:#dc4800;stroke-width:0}</style></defs><g id="Layer_1-2" data-name="Layer 1"><path class="cls-1" d="M866.4.29 266.12 441.04l.04.05s.03.04.04.05c-.02-.04 0-.09.06-.12 11.77-6.67 22.05-12.18 30.82-16.52 17.29-8.55 34.4-15.61 51.34-21.16 6.4-2.1 13.36-3.89 20.88-5.37 7.39-1.45 14.4-1.86 21.05-1.23 3.86.37 7.48 1.39 10.87 3.08 1.66.83 4.48 3.08 8.46 6.77 15.3 14.17 33.15 24 53.56 29.47 15.13 4.06 30.42 6.31 45.85 6.76 45.15 1.29 86.7-9.94 124.67-33.69 25.05-15.67 46.55-35.41 64.48-59.22 22.9-30.39 39.16-63.95 48.78-100.66 1.95-7.44 4.47-17.76 7.58-30.96 1.78-7.57 3.32-16.45 4.61-26.62 2.41-19.01 2.22-37.25-.56-54.71-.65-4.07-.83-7.09-.56-9.04.6-4.22 2.18-9.02 4.73-14.4 2.63-5.53 5.66-10.83 9.1-15.92 7.37-10.9 15.4-20.99 24.08-30.27 1.69-1.81 6.34-6.59 13.94-14.36A833.913 833.913 0 0 1 866.45.34c.52-.44.5-.46-.05-.05ZM652.52 185.45c-1.22 12.42-3.66 25.25-6.89 38.85-3.33 14.02-6.43 25.67-9.3 34.95-11.4 36.85-29.92 74.69-64.72 94.51-14.06 8-30.71 10.29-47.05 8.79-18.83-1.73-34.28-11.21-41.07-29.22-2.24-5.93-3.61-12.23-4.1-18.9-.24-3.18-.31-5.3-.22-6.37.49-5.41 4.19-9.58 8.11-13.6 4.13-4.24 8.37-8.16 12.73-11.76 5.39-4.46 20.19-15.83 44.38-34.11 28.25-21.35 56.53-42.65 84.84-63.91 5.4-4.06 12.14-7.39 18.82-6.36 3.29.5 4.81 3.69 4.47 7.13ZM261.94 3.63c.03-.17.18-.3.35-.3h99.7c.13 0 .23.1.23.24v.03c-25.93 151.11-44.12 256.75-54.57 316.94-2.34 13.52-7.22 28.5-14.65 44.93-10.93 24.17-28.66 45.7-50.62 61.64-26.27 19.06-55.97 29.92-89.1 32.57-17.58 1.4-35.66.82-53.15-1.82-21.95-3.31-43.26-10.63-61.16-23.62C14.74 416.66 1.82 392.57.21 361.99c-.72-13.67.38-27.37 3.29-41.09.07-.33.37-.57.71-.57h96.57c.39 0 .56.2.49.59-1.11 6.31-1.83 12.91-2.16 19.8-.26 5.3.03 10.49.87 15.56 2.94 17.91 13.17 29.29 30.69 34.14 3.43.95 7.91 1.59 13.44 1.94 15.56.99 28.6-7.18 38.47-18.63 14.06-16.31 21.69-36.36 25.47-57.22.95-5.25 18.92-109.54 53.89-312.88ZM914.4 385.89h192.52c.18 0 .32.14.32.32v.05l-11.61 67.42c-.02.16-.16.27-.32.27l-292.96.06c-.18 0-.32-.14-.32-.32v-.05L879.51 3.6c.02-.16.16-.27.32-.27h99.66c.18 0 .32.14.32.32v.05l-65.73 381.82c-.03.17.09.34.27.37h.05ZM1212.82 71.63h-117.8c-.17 0-.31-.13-.31-.31v-.05l11.62-67.68c.02-.15.15-.26.3-.26h340.31c.17 0 .31.13.31.31v.05l-11.63 67.68c-.02.15-.15.26-.3.26h-121.21c-.15 0-.28.11-.3.26l-65.79 381.82c-.02.15-.15.26-.3.26h-100.03c-.17 0-.31-.13-.31-.31v-.05l65.75-381.62a.315.315 0 0 0-.26-.36h-.05ZM734.69 76.69 595.15 179.15s-.02.02-.03 0v-.04c14.46-13.16 28.43-27.06 37.4-43.38 2.53-4.6 4.95-10.59 2.97-16.01-.56-1.55-1.98-3.12-4.26-4.72-6.53-4.57-14.04-7.35-22.54-8.34-12.76-1.49-24.94-.53-36.55 2.9-18.41 5.42-35.47 19.35-46.93 34.83-6.87 9.28-12.52 18.88-16.96 28.8-6.04 13.51-11.01 27.19-14.92 41.04-2.75 9.75-6.69 25.8-11.8 48.17-.06.28-.23.53-.46.7l-106.45 78.17c-.16.11-.26.07-.3-.12a186.954 186.954 0 0 1-3.75-45.92c.64-15.56 2.7-30.84 6.18-45.84 1.08-4.66 3.36-13.84 6.85-27.53 9.99-39.17 27.1-74.49 51.34-105.98 18.44-23.96 40.73-43.74 66.87-59.34 41.61-24.83 86.92-34.97 135.93-30.42 37.4 3.47 74.12 19.53 96.98 50.34.07.09.06.16-.03.23Z"/></g></svg>