<svg id="Layer_2" data-name="Layer 2" xmlns="http://www.w3.org/2000/svg" viewBox="0 0 1894.84 658.02"><defs><style>.cls-1{fill:#dc4800;stroke-width:0}</style></defs><g id="Layer_1-2" data-name="Layer 1"><path class="cls-1" d="M406.68 91.37c-1.31 2.97-2.53 5.07-3.64 6.31-.22.25-.36.57-.39.91-.09.99-.51 1.85-1.28 2.6-.24.23-.42.51-.53.83-.63 1.86-1.54 3.35-2.71 4.46a1.3 1.3 0 0 0-.41.87c-.07 1.17-.55 2.16-1.44 2.95-.25.21-.41.49-.46.82-.13.83-.42 1.59-.85 2.27-.8 1.24-1.22 1.9-1.26 1.98-2.25 4.49-3.47 6.84-3.64 7.05-.25.31-.5.6-.77.88-.23.25-.38.53-.45.85-.17.77-.5 1.38-.97 1.85-.25.24-.54.35-.88.33-4.37-.27-8.09-.56-11.17-.87-.43-.04-2.06-.12-4.89-.25-2.34-.1-4.6-.75-6.51-.77-2.99-.03-6.82-.19-11.47-.48-1.66-.1-3.09-.49-4.3-1.17-1.82-1.03-3.09-1.92-3.82-2.65-.53-.54-1.23-.96-2.09-1.27-.52-.19-1.24-.61-2.17-1.26-4.23-2.97-7.87-5.29-10.9-6.96-1.22-.67-1.95-1.94-3.04-2.42-1.89-.85-3.53-1.75-4.92-2.7-2.93-2.01-4.47-3.06-4.6-3.14-2.18-1.31-4.22-2.6-6.11-3.88-2.19-1.48-4.41-2.9-6.68-4.27-5.62-3.4-10.2-6.31-13.73-8.72-.87-.59-1.37-.96-1.51-1.11-.75-.79-1.45-1.26-2.11-1.42-1.15-.28-2.26-.97-3.33-2.06-.75-.76-1.67-.99-2.54-1.37-.31-.13-.4-.35-.29-.66 1.03-2.84 4.59-10.28 10.66-22.33 5.29-10.5 8.5-16.9 9.65-19.21 1.46-2.93 2.34-4.77 2.64-5.51.41-1.03.84-1.83 1.28-2.39.41-.51.69-1.17.84-1.97.06-.33.19-.64.4-.91.85-1.09 1.33-1.95 1.46-2.58.17-.85.57-1.62 1.2-2.33.36-.4.71-1.24 1.06-2.51.09-.33.24-.62.46-.87 1.29-1.44 1.26-2.96 2.39-4.62.98-1.44 1.67-2.95 2.07-4.52.08-.33.26-.64.51-.88.79-.79 1.26-1.74 1.41-2.87.05-.34.2-.66.45-.91 1.05-1.07 1.61-2.38 1.7-3.93.02-.33.31-.58.64-.56.04 0 .08 0 .13.02 7.1 1.99 13.84 3.95 20.23 5.89.53.16 2.3.63 5.33 1.4 1.14.29 2.32.65 3.53 1.07 1.27.43 2.44.78 3.52 1.04 4.12.97 6.47 1.64 7.06 1.99 3.69 2.23 7.46 4.4 11.33 6.5 1.44.78 3.08 1.69 4.9 2.72 3.37 1.89 6.89 3.96 10.57 6.21.5.31.9.54 1.19.69 6.56 3.39 10.08 5.23 10.55 5.52 8.21 4.87 12.32 7.3 12.33 7.31.6.41 1.47.86 2.62 1.37.95.42 1.84.87 2.67 1.36 3.11 1.83 7.19 4.14 12.24 6.92.77.42.92 1 .46 1.74-1.36 2.19-3.39 5.96-6.08 11.33-.36.72-1.11 1.36-1.45 2.11-1.59 3.49-3.02 6.14-4.29 7.95-.3.43-.66 1.22-1.07 2.35-.42 1.13-1.35 2.01-1.84 3.05-1.59 3.37-2.95 5.9-4.06 7.58-.44.67-.86 1.42-1.26 2.23-.32.66-.58 1.16-.77 1.51-.39.67-.65 1.17-.8 1.51ZM54.93 6.05l66.93 47.06c.18.12.22.37.1.55-.03.04-.07.08-.12.11a526.319 526.319 0 0 1-31.82 18.81c-.95.52-2.55 1.31-4.79 2.37-.17.08-.84.5-2.03 1.27-.44.29-.94.52-1.5.68-.62.17-1.11.37-1.48.6-4.27 2.63-7.38 4.28-9.33 4.95-1.61.55-2.79 1.03-3.54 1.42-1.76.92-4.56 2.29-8.39 4.11-.33.16-.51.06-.53-.31L54.49 6.29c-.02-.38.13-.46.44-.24Z"/><path class="cls-1" d="M133.42 53.47c.26-.24.28-.66.04-.92-.03-.03-.07-.06-.11-.09l-10.91-7.57a.237.237 0 0 1-.06-.35c.04-.06.1-.1.16-.11 16.09-3.39 32.72-6.14 49.87-8.25 27.99-3.45 54.57-5.33 79.74-5.66 9.87-.13 20.96-.14 33.25-.04 4.69.04 8.15.15 10.38.33.37.03.48.22.31.55l-7.91 15.86c-.12.25-.38.41-.67.4-54.36-1.41-110.89 2.86-164.93 14.42-.97.21-1.03.07-.16-.43 3.83-2.19 7.5-4.91 11-8.14ZM1325.99 20.61 725.71 492.48l.04.05s.03.04.04.05c-.02-.04 0-.1.06-.13 11.77-7.14 22.05-13.04 30.82-17.69 17.29-9.15 34.4-16.71 51.34-22.65 6.4-2.25 13.36-4.16 20.88-5.75 7.39-1.55 14.4-1.99 21.05-1.32 3.86.4 7.48 1.49 10.87 3.3 1.66.89 4.48 3.3 8.46 7.25 15.3 15.17 33.15 25.69 53.56 31.55 15.13 4.35 30.42 6.76 45.85 7.24 45.15 1.38 86.7-10.64 124.67-36.07 25.05-16.78 46.55-37.91 64.48-63.4 22.9-32.54 39.16-68.47 48.78-107.77 1.95-7.97 4.47-19.01 7.58-33.15 1.78-8.1 3.32-17.61 4.61-28.5 2.41-20.35 2.22-39.88-.56-58.57-.65-4.36-.83-7.59-.56-9.68.6-4.52 2.18-9.66 4.73-15.42 2.63-5.92 5.66-11.59 9.1-17.04 7.37-11.67 15.4-22.47 24.08-32.41 1.69-1.94 6.34-7.06 13.94-15.37a860.5 860.5 0 0 1 56.51-56.35c.52-.47.5-.49-.05-.05Zm-213.88 198.23c-1.22 13.3-3.66 27.03-6.89 41.59-3.33 15.01-6.43 27.48-9.3 37.42-11.4 39.45-29.92 79.96-64.72 101.18-14.06 8.56-30.71 11.02-47.05 9.41-18.83-1.85-34.28-12-41.07-31.28-2.24-6.35-3.61-13.09-4.1-20.23-.24-3.4-.31-5.67-.22-6.82.49-5.79 4.19-10.26 8.11-14.56 4.13-4.54 8.37-8.74 12.73-12.59 5.39-4.77 20.19-16.95 44.38-36.52 28.25-22.86 56.53-45.66 84.84-68.42 5.4-4.35 12.14-7.91 18.82-6.81 3.29.54 4.81 3.95 4.47 7.63ZM709.53 44.11c.03-.17.18-.3.35-.3h99.7c.13 0 .23.1.23.24v.03c-25.93 151.11-44.12 256.75-54.57 316.94-2.34 13.52-7.22 28.5-14.65 44.93-10.93 24.17-28.66 45.7-50.62 61.64-26.27 19.06-55.97 29.92-89.1 32.57-17.58 1.4-35.66.82-53.15-1.82-21.95-3.31-43.26-10.63-61.16-23.62-24.23-17.59-37.15-41.67-38.76-72.25-.72-13.67.38-27.37 3.29-41.09.07-.33.37-.57.71-.57h96.57c.39 0 .56.2.49.59-1.11 6.31-1.83 12.91-2.16 19.8-.26 5.3.03 10.49.87 15.56 2.94 17.91 13.17 29.29 30.69 34.14 3.43.95 7.91 1.59 13.44 1.94 15.56.99 28.6-7.18 38.47-18.63 14.06-16.31 21.69-36.36 25.47-57.22.95-5.25 18.92-109.54 53.89-312.88ZM1361.99 426.37h192.52c.18 0 .32.14.32.32v.05l-11.61 67.42c-.02.16-.16.27-.32.27l-292.96.06c-.18 0-.32-.14-.32-.32v-.05l77.48-450.04c.02-.16.16-.27.32-.27h99.66c.18 0 .32.14.32.32v.05L1361.67 426c-.03.17.09.34.27.37h.05ZM1660.41 112.11h-117.8c-.17 0-.31-.13-.31-.31v-.05l11.62-67.68c.02-.15.15-.26.3-.26h340.31c.17 0 .31.13.31.31v.05l-11.63 67.68c-.02.15-.15.26-.3.26H1761.7c-.15 0-.28.11-.3.26l-65.79 381.82c-.02.15-.15.26-.3.26h-100.03c-.17 0-.31-.13-.31-.31v-.05l65.75-381.62a.315.315 0 0 0-.26-.36h-.05ZM428.99 64.73l8.4-14.55c.1-.17.24-.22.43-.17 10.76 2.81 21.17 6.06 31.22 9.75 4.45 1.64 6.83 4.97 6.06 9.76-.61 3.79-2.88 6.1-6.81 6.93-1.45.31-3.37.04-5.77-.81-11.53-4.05-22.6-7.44-33.23-10.19a.494.494 0 0 1-.3-.72ZM1194.28 102.4l-139.54 109.69s-.02.02-.03 0v-.05c14.46-14.09 28.43-28.97 37.4-46.44 2.53-4.92 4.95-11.34 2.97-17.14-.56-1.66-1.98-3.34-4.26-5.05-6.53-4.89-14.04-7.87-22.54-8.93-12.76-1.6-24.94-.56-36.55 3.1-18.41 5.8-35.47 20.72-46.93 37.29-6.87 9.94-12.52 20.21-16.96 30.83-6.04 14.47-11.01 29.11-14.92 43.94-2.75 10.43-6.69 27.63-11.8 51.57-.06.3-.23.57-.46.75l-106.45 83.69c-.16.12-.26.08-.3-.13-3.14-16.18-4.39-32.57-3.75-49.16.64-16.66 2.7-33.02 6.18-49.08 1.08-4.99 3.36-14.81 6.85-29.47 9.99-41.93 27.1-79.75 51.34-113.46 18.44-25.65 40.73-46.83 66.87-63.53 41.61-26.59 86.92-37.44 135.93-32.57 37.4 3.72 74.12 20.91 96.98 53.89.07.09.06.17-.03.25ZM126.72 202.09c1.41-.33 1.4-.63-.03-.9-20.62-3.9-42.5-9.82-62.74-17.58-15.61-5.99-29.43-13.38-41.46-22.18C11.54 153.42-.48 138.47.02 124.17c.08-2.41-.18-6.53.49-9.59 2.81-12.75 11.8-23.53 22.03-31.22 8.55-6.41 17.62-11.77 27.23-16.07.36-.16.56-.04.59.35.34 4.11.55 9.22.62 15.35 0 .82.33 1.62.54 2.47.06.28-.12.6-.45.77-15.12 7.84-43.52 25.49-31.16 46.68 6.06 10.39 16.82 17.83 27.7 23.69 13.8 7.43 28.12 13.29 42.96 17.6 21.5 6.23 38.37 10.34 50.61 12.33.29.05.53.19.71.43l17.79 24.23c.45.61.29.98-.46 1.11-11.27 1.87-22.73 4.55-34.38 8.06-9.84 2.97-18.55 7.01-26.13 12.12-1.94 1.31-3.62 2.98-5.05 5-2.29 3.25-.86 5.75 1.92 8.43 5.07 4.88 12.59 8.35 17.75 10.41 5.91 2.35 12.76 4.64 20.55 6.87.42.11.44.28.06.49-5.04 2.87-9.05 7.36-12.02 13.49-.12.25-.41.38-.68.3-7.51-2.2-15.23-5.31-23.16-9.32-12.91-6.53-27.46-19.01-21.14-35.36 2.99-7.72 8.72-12.86 16.26-17.36 10.13-6.03 21.31-10.48 33.52-13.34ZM244.91 138.85c-.65 1.82-1.59 3.37-2.8 4.66-.23.25-.36.54-.39.87-.11 1.19-.59 2.17-1.46 2.94-.25.23-.42.53-.47.85-.27 1.62-1.13 3.01-2.58 4.17-.26.2-.42.51-.44.85-.09 1.26-.57 2.29-1.46 3.1-.25.22-.42.52-.49.84a11.8 11.8 0 0 1-1.48 3.74c-1.24 2.01-1.87 3.04-1.89 3.09-.73 1.43-1.6 3.14-2.59 5.14-.43.86-.88 1.52-1.37 1.99-.59.58-.92 1.31-.98 2.19a2.63 2.63 0 0 1-2.25 2.42c-.74.11-1.45.35-2.12.73-1.91 1.07-3.85 2-5.83 2.8-2.29.93-4.25 1.79-5.87 2.59-4.35 2.15-8.55 4.06-12.58 5.74-3.59 1.49-6.67 2.88-9.25 4.17-2.33 1.15-4.37 2.11-6.14 2.87-2.55 1.09-4.62 2.01-6.19 2.76-4.38 2.07-8.29 3.73-11.74 4.96-.38.13-.62.27-.73.4-.11.13-.18.22-.23.28-.21.27-.45.3-.72.09-.81-.61-1.4-1.24-1.78-1.87-.69-1.15-1.15-1.87-1.39-2.16-1.33-1.59-2.46-3.14-3.4-4.66-.75-1.22-1.62-2.4-2.59-3.54-1.37-1.59-2.23-2.79-2.59-3.58-.78-1.71-1.44-2.62-1.99-2.74a.425.425 0 0 1-.34-.36c-.24-1.9-2.25-3.25-3.17-4.48-1.87-2.53-3.92-5.42-6.14-8.69-.41-.6-1.73-2.41-3.97-5.42-1.47-1.98-2.71-3.91-3.73-5.8-.53-.99-1-1.69-1.39-2.11-1.05-1.12-2.32-2.01-2.75-3.26-.18-.52-.7-1.22-1.55-2.09-.47-.47-.97-1.16-1.52-2.05a52.435 52.435 0 0 0-5.56-7.45c-.22-.25-.23-.51-.03-.78 2.75-3.77 4.79-6.31 6.13-7.62.19-.19.48-.58.88-1.19.26-.41 3.91-5.31 10.94-14.72 2.19-2.93 4.57-5.89 7.12-8.87 1.2-1.4 2.67-2.56 4.41-3.47 10.13-5.32 15.2-7.98 15.21-7.99.74-.49 3.46-1.87 8.15-4.16 3.55-1.73 6.26-3.12 8.14-4.19.96-.55 4.59-2.54 10.9-5.99 2.71-1.48 7.24-3.76 13.59-6.85.31-.15.57-.08.77.19.55.72.93 1.32 1.15 1.8.88 1.94 2.33 3.15 3.52 5.19 1.02 1.74 1.76 2.89 2.23 3.45.7.84 1.4 1.89 2.11 3.16.45.81 1.16 1.87 2.13 3.19 2.45 3.34 4.12 5.95 5 7.84.53 1.15 1.34 2.28 2.42 3.41.71.75 1.43 2.01 2.15 3.8.12.3.3.56.54.78 1.03.95 1.69 1.71 1.98 2.29.56 1.13 1.13 1.98 1.7 2.54.62.61 1.26 1.56 1.91 2.85a14.87 14.87 0 0 0 2.02 2.97c.41.48 1.34 1.92 2.77 4.31.7 1.16 2.27 3.42 4.7 6.79.68.93 1.51 2.49 2.49 4.66.31.69.83 1.01 1.5 1.34.18.09.25.31.16.48-.03.06-.07.1-.12.14l-.29.19c-.18.12-.3.28-.37.48ZM302.83 101.8c9.27 5.88 19.03 12.11 29.28 18.69.79.5 1.37.84 1.75 1.02.84.39.81.51-.09.35a347.126 347.126 0 0 0-39.49-4.48c-15.97-.89-33.64-.77-53.03.34-.33.02-.6-.11-.79-.39l-10.3-15.38c-.12-.18-.07-.28.14-.31 24.27-2.53 47.68-2.83 70.22-.89.51.05 1.28.4 2.31 1.05ZM392.01 133.39l4.59-7.96c.14-.23.44-.31.67-.18 8.77 5.13 16.98 12.53 20.91 21.67 4.68 10.91.92 23.04-7.39 31.48-6.01 6.1-13.07 11.03-21.18 14.8-12.28 5.71-26.02 10.19-41.22 13.46-.27.06-.48-.02-.65-.25-1.88-2.62-4.09-5.43-6.64-8.43a20.12 20.12 0 0 0-3.26-3.07c-.52-.39-1.51-1.25-2.98-2.58-.26-.23-.22-.38.12-.44 18.29-3.34 36.59-8.63 52.25-17.07 6.13-3.29 10.6-7.07 13.43-11.33 4.22-6.36 1.86-11.84-3.19-16.61-7.05-6.67-16.02-10.98-24.83-14.46-.45-.18-.43-.25.05-.21l18.68 1.51c.28.03.49-.08.64-.33ZM260.83 213.79c.81-1.24 1.29-2.45 1.95-3.87.14-.3.34-.55.6-.74 1.24-.92 1.98-1.91 2.23-2.96.09-.34.27-.62.55-.83 1.31-.99 2.19-2.12 2.63-3.39.11-.32.33-.6.62-.77 1.81-1.1 3.49-2.42 5.05-3.95.67-.65 1.43-1.2 2.28-1.65.13-.06.98-.46 2.56-1.21 1.25-.6 2.51-1.3 3.77-2.09 1.47-.93 2.76-1.49 3.88-1.69 1.52-.26 3.35-.78 5.48-1.55 1.29-.47 3.61-.66 6.94-.58.88.02 1.75-.1 2.62-.36 1.17-.35 2.32.4 3.61.38 3.06-.03 5.08.13 6.05.48 2.09.76 3.9 1.29 5.41 1.6 1.83.37 3.29 1.01 4.36 1.94.35.31 1.52.91 3.51 1.8 1.61.72 2.77 1.36 3.48 1.93 4.23 3.42 8.08 7.23 11.54 11.42.82 1 1.64 2.39 2.47 4.17.49 1.05 1.21 2.52 2.17 4.39 1.01 1.96 1.66 3.58 1.97 4.85.61 2.48 1 4.08 1.19 4.81 2.03 7.95 1.34 16.57-2.07 25.86-.85 2.3-1.68 3.91-2.5 4.82-.2.22-.34.48-.42.77-.15.58-.26.98-.33 1.19-.37 1.11-1.44 1.76-1.67 2.78-.07.33-.23.61-.47.84-1.07 1.07-2.42 2.69-4.05 4.88a6.56 6.56 0 0 1-1.87 1.7c-.89.54-1.56 1.02-1.99 1.45-1.63 1.6-2.9 2.66-3.8 3.19-7.63 4.47-14.44 7.07-20.43 7.81-.92.11-4.37.11-10.36 0-1.69-.03-3.31-.28-4.86-.73-2.62-.77-4.23-1.24-4.82-1.4-1.74-.47-3.35-1.12-4.84-1.95-1.37-.77-2.93-1.59-4.68-2.44-2.05-1.01-3.91-2.55-5.29-4.12-.51-.57-1.21-1.09-2.12-1.55a7.154 7.154 0 0 1-2.88-2.63c-1.07-1.69-1.84-2.76-2.32-3.19-1.86-1.66-3.86-3.9-4.29-6.34-.15-.86-.62-1.63-1.41-2.31-.28-.24-.44-.58-.47-.95-.09-1.13-.48-2.02-1.18-2.68-.26-.25-.4-.55-.43-.9-.16-1.96-.51-3.45-1.05-4.47-.73-1.39-1.05-2.66-.95-3.81.08-.99-.11-2.66-.56-5.01-.61-3.2.38-6.53.52-9.04.05-.78.48-2.12 1.29-4.03.16-.37.45-1.78.87-4.24.27-1.6 1.11-3.48 2.51-5.63ZM161.68 211.81c12.36-5.69 24.76-11.32 37.19-16.88.57-.26 1.65-.51 2.38-.44 20.43 1.82 40.95 2.78 61.55 2.87.22 0 .39.17.39.39 0 .09-.03.18-.09.26-2.06 2.54-5.22 5.71-6.82 8.93-1.12 2.27-2.36 4.57-3.73 6.91-.16.27-.4.41-.72.41-23.26-.39-46.24-1.84-68.93-4.37-1.43-.16-3.35-.21-5.76-.14-2.75.07-7.94.79-15.57 2.16-.03 0-.04 0-.05-.03v-.02s0-.03.03-.03h.07s.03 0 .06-.02ZM334.46 277.75c5.63-4.05 10.31-9.16 14.03-15.34.25-.43.65-.75 1.13-.89 8.93-2.67 16.79-5.76 23.58-9.26 3.69-1.89 8.2-4.95 10.72-8.28 1.09-1.44 1.37-4.2 1.85-6.14 1.7-6.78 11.51-7.59 15.15-2.2 2.44 3.6 1.5 9.58-.18 13.26-5.89 12.88-21.84 20.68-35.21 25.47-14.08 5.04-28.14 8.64-42.19 10.8-2.67.41-2.77.08-.3-1.01 2.33-1.03 4.92-2.29 7.76-3.78 1.49-.77 2.31-1.66 3.66-2.63ZM195.88 315.15c-.64 1.98-1.12 3.19-1.45 3.63-5.77 7.75-13.45 11.88-23.05 12.4-6.09.33-12.69-1.06-19.8-4.16-.53-.23-1.45-.77-2.76-1.61-.99-.63-1.95-1.14-2.9-1.51a2.56 2.56 0 0 1-.83-.55c-.57-.59-1.2-1.04-1.91-1.33-.31-.12-.58-.3-.81-.54-1.41-1.45-2.39-2.36-2.93-2.73a10.68 10.68 0 0 1-2.44-2.36c-.73-.97-1.54-1.85-2.41-2.64-1.01-.91-2.74-3.82-5.19-8.74-.81-1.64-1.28-2.88-1.41-3.71-.17-1.11-.44-2-.82-2.65-1.38-2.39-1.04-6.81-.99-10.39.01-1.38.28-2.58.81-3.59 1.15-2.2.9-4.46 2.59-6.58.04-.05.62-1.02 1.75-2.93.84-1.43 2.06-2.65 3.67-3.65 2.27-1.41 3.52-2.19 3.73-2.33 2.53-1.69 5.34-2.83 8.42-3.42 15.65-2.99 24.23-4.59 25.74-4.79 3.51-.46 7.99-1.31 13.44-2.55 1.24-.28 1.84.21 1.79 1.48-.13 3.13 1.84 5.61 2.01 8.37.09 1.53.41 2.94.96 4.23 1.08 2.53 1 5.56 2.07 8.2.31.78.64 2.09.97 3.92.48 2.64 1.32 5.05 2.17 7.77.81 2.54.71 4.88 1.5 7.4.37 1.19.53 2.59.48 4.19-.11 3.29-.62 6.5-1.51 9.62-.06.23-.2.47-.41.7-.22.25-.38.54-.48.85Z"/><path class="cls-1" d="M189.49 368.87c-15.61-1.94-30.63-5.4-45.06-10.38-9.9-3.41-18.76-8.31-26.58-14.69-5.35-4.37-8.83-9.84-10.45-16.42-.82-3.33-.85-6.01-.09-8.04 2.91-7.8 14.5-7.64 16.34 1.3.98 4.78 2.49 8.21 6.85 11.31 6.87 4.87 14.69 8.7 23.46 11.51 28.87 9.23 58.1 11.59 89.37 10.88 15.93-.36 32.21-2.22 48.82-5.58 11.39-2.3 22.11-5.75 32.18-10.36 6.04-2.76 10.74-5.91 14.11-9.44 4.43-4.65 4.24-9.24-.55-13.78-2.73-2.58-5.42-4.63-8.07-6.16-11.88-6.82-25.33-10.67-39.94-13.71a206.71 206.71 0 0 0-19.12-3.05c-3.64-.4-10.06-.51-19.26-.34-12.96.25-26.08.1-39.36-.45-3.07-.12-5.94-.31-8.62-.56-.32-.03-.52-.19-.59-.5l-4.09-16.35c-.09-.36.06-.52.44-.49 22.09 1.72 44.06 2 65.91.83.77-.05 1.53.21 2.12.7 2.96 2.47 5.05 4.51 7.79 5.79 1.83.85 3.39 1.67 4.7 2.46 1.23.75 2.82 1.4 4.76 1.97 3.43 1 5.52 1.61 6.27 1.82 5.48 1.53 10.61 1.26 16.27 1.19 1.77-.03 3.97-.38 6.59-1.07.82-.22 2.99-.82 6.52-1.79.39-.11.66-.03.8.23l.13.24c.09.18.27.31.54.4 5.81 1.97 11.48 4.56 17.01 7.75 7.37 4.26 15.5 11.11 18.44 19.13 5.31 14.47-2.66 26.73-14.69 34.8-7.48 5.03-16.19 9.07-26.14 12.13-16.45 5.06-32.18 8.24-47.17 9.55-6.85.6-14.36 1.17-22.52 1.7-8.65.57-15.26 1.36-19.82 2.38-8.65 1.93-16.63 4.66-23.92 8.18-3.8 1.84-8.68 5.04-10.57 9.04-.14.3-.16.61-.05.93 1.49 4.59 7.93 8.21 12.01 9.99 8.89 3.87 18.56 6.77 29.03 8.68 23.83 4.37 48.33 5.12 73.52 2.26 2.38-.28 6.1-.65 8.55 0 4.09 1.09 6.15 3.88 6.18 8.37.02 3.09-1.54 5.49-4.68 7.2-1.62.88-4.7 1.48-9.24 1.79-8.63.6-15.16.96-19.61 1.07-1.16.03-2.79.46-4.88 1.3-6.21 2.48-11.64 6.8-15.28 12.34-6.27 9.51 2.54 18.67 10.61 23.29 8.22 4.7 17.61 7.56 28.17 8.58 2.62.25 5.01.39 7.16.4 3.11.03 5.28.47 6.53 1.34 6.42 4.46 4.93 15.13-3.85 15.51-18.6.79-39.97-4.31-54.53-16.4-14.48-12.02-18.11-30.66-5.93-45.97.16-.2.13-.5-.08-.66a.459.459 0 0 0-.25-.1c-19.23-1.82-38.88-5.12-56.21-12.45-7.13-3.02-12.98-6.82-17.54-11.4-4.09-4.11-6.32-8.86-6.71-14.25-.74-10.34 6.5-17.89 14.46-23.1.7-.45.64-.73-.19-.84ZM1233.77 621.26c-1.42-5.45-11.71-10.3-16.37-12.02-10.46-3.84-19.3-7.11-27.79-13.68-5.96-4.6-9.35-11.02-9.32-18.79.09-17.79 12.55-28.89 28.92-32.98 9.79-2.45 19.67-2.61 29.64-.47 9.33 2 19.08 7.88 22.43 16.95 1.77 4.82 2.06 10.17.87 16.05-.05.26-.28.44-.54.44h-23.28c-.36 0-.53-.18-.51-.54.68-10.58-4.12-16.34-14.39-17.28-3.99-.37-7.87.69-11.63 3.18-6.84 4.54-8.89 15.18-1.8 20.58 2.47 1.88 5.95 3.72 10.44 5.52 8.12 3.25 13.4 5.38 15.85 6.39 6.82 2.79 12.59 6.58 17.31 11.36 3.59 3.63 5.57 8.21 5.95 13.74.88 12.85-3.45 22.72-13 29.61-10.65 7.68-25.4 9.55-39.17 8.32-8.21-.73-15.67-3.05-22.4-6.98-7.62-4.45-11.41-11.09-11.36-19.9 0-2.58.25-4.92.73-7.03.07-.31.27-.46.59-.46h22.77c.71 0 1.03.35.95 1.06-.43 3.85-.05 6.89 1.14 9.12 1.23 2.3 3.45 4.11 6.66 5.43 7.36 3.04 16.15 3.31 22.52-1.65 4.96-3.86 6.56-9.18 4.79-15.97ZM1391.55 578.08c1.04-8.05 1.69-16.25-8.4-18.42-9.01-1.92-18.32-.56-24.13 6.96-3.23 4.17-5.35 9.22-6.37 15.13-.94 5.46-2.93 17.12-5.96 34.99-1.84 10.83-1.52 22.29 12.13 24.03 5.4.69 10.12.17 14.15-1.57 6.99-3.01 9.66-10.34 10.9-17.36.05-.31.24-.47.56-.47h23.47c.41 0 .58.2.51.61-2.86 16.56-10.81 28.24-27.58 33.21-8.69 2.58-18 3.4-27.93 2.45-5.44-.52-10.91-1.87-15.69-4.4-9.75-5.15-15.19-12.95-16.3-23.41-.46-4.28.11-10.89 1.7-19.84 1.49-8.35 2.98-17.02 4.49-26.03 2.87-17.14 11.23-30.56 27.45-37.59 8.21-3.56 16.92-4.61 26.31-4.46 16.47.27 35.2 6.31 36.1 25.83.16 3.45-.12 6.91-.83 10.38-.05.23-.25.39-.48.39h-23.72c-.29 0-.41-.14-.38-.43ZM1481.71 621.12c-2.21-6.83-14.76-11.35-20.93-13.55-9.8-3.5-20.01-8.15-27.1-15.81-3.17-3.43-4.94-7.77-5.29-13.02-1.19-17.69 11.04-30.35 27.79-34.71 11.73-3.05 23.2-2.95 34.42.31 3.85 1.12 7.47 3.02 10.86 5.69 8.47 6.69 10.61 15.37 8.75 26.24-.05.33-.25.49-.58.49h-23.3c-.4 0-.58-.2-.55-.6.72-8.76-2.62-14.25-10.03-16.48-9.43-2.83-21.33 2.16-22.07 13.07-.29 4.3 1.13 7.6 4.24 9.91 2.72 2.01 6.34 3.91 10.85 5.7 10.4 4.14 15.65 6.23 15.75 6.28 7.85 3.39 16.77 8.85 20.75 16.53 1.39 2.69 2.19 5.92 2.4 9.69 1.1 19.62-12.28 32.07-30.36 35.7-15.63 3.13-35.66 1.64-48.02-8.55-7.52-6.2-8.69-15-7.01-24.21.06-.35.27-.53.63-.53h22.94c.63 0 .91.31.82.94-.49 3.79-.13 6.84 1.09 9.15 2.94 5.56 11.66 7.75 17.63 7.7 10.86-.08 20.02-8.56 16.32-19.94ZM956.13 566.7c-2.57-11.12-11.35-18.73-22.17-21.51-4.23-1.08-7.99-1.64-11.3-1.69-11.35-.15-26.56-.15-45.65-.02-.34 0-.54.17-.6.51l-19.31 112.2c-.04.21.05.32.26.32h24.51c.16 0 .3-.12.33-.28l6.93-40.23c.06-.33.26-.5.6-.49 7.09.12 14 .09 20.71-.08 17.75-.47 33.93-8.11 41.96-23.98 3.62-7.16 5.46-17.24 3.73-24.75Zm-24.7 10.82c-1.06 10.87-8.47 20.49-20 20.81-3.41.09-9.66.1-18.75.05-.23 0-.42-.18-.43-.4 0-.03 0-.06.01-.09l6.39-37.1c.02-.11.11-.19.21-.19 6.5-.01 12.84.01 19.02.05 10.4.06 14.47 7.32 13.55 16.87ZM993.23 609.67l-8.03 46.52c-.03.18-.19.32-.37.32h-24.35c-.21 0-.38-.18-.37-.39v-.05l19.36-112.34c.03-.18.19-.32.37-.32h24.35c.21 0 .38.18.37.39v.05l-8.25 47.98c-.03.21.11.4.32.44H1037.91c.18 0 .34-.13.37-.31l8.28-48.23c.03-.18.19-.32.37-.32h24.27c.21 0 .38.18.37.39v.05l-19.35 112.34c-.03.18-.19.32-.37.32h-24.26c-.21 0-.38-.17-.37-.38v-.05l7.97-46.29a.39.39 0 0 0-.32-.44H993.6c-.18 0-.34.14-.37.32ZM1122.27 592.57l30.75-48.97c.07-.11.19-.18.32-.18l26.53-.03c.21 0 .38.16.39.37 0 .08-.02.16-.07.23l-50.04 72.09s-.05.1-.06.15l-6.91 39.95c-.03.18-.19.32-.37.32l-24.27.02a.38.38 0 0 1-.38-.38v-.07l7.15-41.21c.01-.06 0-.13-.01-.19l-24.81-70.76c-.07-.2.03-.42.23-.49.04-.02.09-.02.13-.02h26.6c.17 0 .32.12.37.29l13.75 48.79c.06.2.27.32.47.26.09-.03.17-.09.22-.17ZM1270.55 656.03l19.33-112.24a.42.42 0 0 1 .42-.36h24.15c.24 0 .43.2.43.43v.07l-19.33 112.24a.42.42 0 0 1-.42.36h-24.15c-.24 0-.43-.2-.43-.43v-.07Z"/></g></svg>